<?xml version="1.0" encoding="iso-8859-1"?>
<!-- Uploaded to: SVG Repo, www.svgrepo.com, Generator: SVG Repo Mixer Tools -->
<svg height="800px" width="800px" version="1.1" id="Layer_1" xmlns="http://www.w3.org/2000/svg" xmlns:xlink="http://www.w3.org/1999/xlink" 
	 viewBox="0 0 512 512" xml:space="preserve">
<g transform="translate(1 1)">
	<path style="fill:#FFFFFF;" d="M135.533,101.4c-37.547,0-68.267,30.72-68.267,68.267c0,1.707,0,2.56,0,4.267s0,3.413,0,4.267
		c-34.133,16.213-59.733,55.467-59.733,95.573c0,55.467,45.227,100.693,100.693,100.693H152.6l20.48-261.973
		C162.84,105.667,149.187,101.4,135.533,101.4"/>
	<path style="fill:#CCCCCC;" d="M424.813,186.733C423.96,112.493,363.373,50.2,289.133,50.2l84.48,324.267h34.133
		c52.053,0,93.867-42.667,93.867-93.867C501.613,234.52,468.333,195.267,424.813,186.733"/>
	<path style="fill:#E2E3E5;" d="M400.067,186.733c-0.853-74.24-61.44-136.533-135.68-136.533c-47.787,0-52.907,14.507-77.653,51.2
		c-11.093-6.827-11.947,0-25.6,0c-37.547,0-68.267,30.72-68.267,68.267c0,1.707,0,2.56,0,4.267s0,3.413,0,4.267
		c-34.133,16.213-59.733,55.467-59.733,95.573c0,55.467,45.227,100.693,100.693,100.693H178.2h170.667H383
		c52.053,0,93.867-42.667,93.867-93.867C476.867,234.52,443.587,195.267,400.067,186.733"/>
	<g>
		<path style="fill:#B6B6B6;" d="M383,195.267c-4.267,0-7.68-3.413-8.533-6.827c-0.853-4.267,2.56-9.387,6.827-9.387
			c22.187-3.413,44.373,0,45.227,0c4.267,0.853,7.68,5.12,6.827,9.387c-0.853,4.267-5.12,7.68-9.387,6.827c0,0-20.48-2.56-40.107,0
			H383z"/>
		<path style="fill:#B6B6B6;" d="M203.8,178.2c-5.12,0-8.533-3.413-8.533-8.533c0-33.28-26.453-59.733-59.733-59.733
			S75.8,136.387,75.8,169.667c0,5.12-3.413,8.533-8.533,8.533s-8.533-3.413-8.533-8.533c0-42.667,34.133-76.8,76.8-76.8
			s76.8,34.133,76.8,76.8C212.333,174.787,208.92,178.2,203.8,178.2z"/>
		<path style="fill:#B6B6B6;" d="M408.6,383h-34.133c-5.12,0-8.533-3.413-8.533-8.533s3.413-8.533,8.533-8.533H408.6
			c46.933,0,85.333-38.4,85.333-85.333c0-40.96-29.867-77.653-69.973-85.333c-4.267-0.853-6.827-4.267-6.827-8.533
			c-0.853-70.827-58.027-128-127.147-128c-42.667,0-85.333,23.04-109.227,58.88c-2.56,4.267-7.68,5.12-11.947,2.56
			c-10.24-6.827-21.333-10.24-33.28-10.24c-33.28,0-59.733,26.453-59.733,59.733c0,0.853,0,1.707,0,2.56v0.853v0.853v0.853
			c0,0.853,0,2.56,0,3.413c0,3.413-1.707,5.973-5.12,7.68c-31.573,15.36-54.613,52.053-54.613,87.893
			c0,50.347,41.813,92.16,92.16,92.16H152.6c5.12,0,8.533,3.413,8.533,8.533S157.72,383,152.6,383h-44.373
			C48.493,383-1,333.507-1,273.773c0-40.96,24.747-81.067,59.733-100.693c0-0.853,0-2.56,0-3.413c0-42.667,34.133-76.8,76.8-76.8
			c12.8,0,24.747,2.56,34.987,8.533c28.16-36.693,72.533-59.733,118.613-59.733c76.8,0,139.947,61.44,145.067,138.24
			c44.373,11.947,76.8,53.76,76.8,100.693C511,336.92,464.92,383,408.6,383z"/>
		<path style="fill:#B6B6B6;" d="M263.533,468.333c-52.053,0-93.867-41.813-93.867-93.867S211.48,280.6,263.533,280.6
			c36.693,0,69.12,21.333,84.48,56.32c1.707,4.267,0,9.387-4.267,11.093c-4.267,1.707-9.387,0-11.093-4.267
			c-12.8-28.16-39.253-46.08-69.12-46.08c-42.667,0-76.8,34.133-76.8,76.8s34.133,76.8,76.8,76.8s76.8-34.133,76.8-76.8
			c0-5.12,3.413-8.533,8.533-8.533c5.12,0,8.533,3.413,8.533,8.533C357.4,426.52,315.587,468.333,263.533,468.333z"/>
		<path style="fill:#B6B6B6;" d="M340.333,348.867h-68.267c-5.12,0-8.533-3.413-8.533-8.533s3.413-8.533,8.533-8.533h68.267
			c5.12,0,8.533,3.413,8.533,8.533S345.453,348.867,340.333,348.867z"/>
		<path style="fill:#B6B6B6;" d="M340.333,348.867c-5.12,0-8.533-3.413-8.533-8.533v-68.267c0-5.12,3.413-8.533,8.533-8.533
			c5.12,0,8.533,3.413,8.533,8.533v68.267C348.867,345.453,345.453,348.867,340.333,348.867z"/>
	</g>
</g>
</svg>